<svg width="10" height="12" viewBox="0 0 10 12" fill="none" xmlns="http://www.w3.org/2000/svg">
<path d="M2.08044 4.5V3.46875C2.08044 1.77148 3.45544 0.375 5.17419 0.375C6.87146 0.375 8.26794 1.77148 8.26794 3.46875V4.5H8.61169C9.36365 4.5 9.98669 5.12305 9.98669 5.875V10C9.98669 10.7734 9.36365 11.375 8.61169 11.375H1.73669C0.963257 11.375 0.361694 10.7734 0.361694 10V5.875C0.361694 5.12305 0.963257 4.5 1.73669 4.5H2.08044ZM3.45544 4.5H6.89294V3.46875C6.89294 2.52344 6.11951 1.75 5.17419 1.75C4.2074 1.75 3.45544 2.52344 3.45544 3.46875V4.5Z" fill="white"/>
</svg>
